<?xml version="1.0" encoding="UTF-8"?>
<svg id="Layer_1" xmlns="http://www.w3.org/2000/svg" version="1.1" xmlns:xlink="http://www.w3.org/1999/xlink" viewBox="0 0 277 48">
  <!-- Generator: Adobe Illustrator 29.4.0, SVG Export Plug-In . SVG Version: 2.1.0 Build 152)  -->
  <defs>
    <style>
      .st0 {
        fill: #77b000;
      }

      .st1 {
        fill: #ffc202;
      }

      .st2 {
        fill: none;
      }

      .st3 {
        fill: #5f9e00;
      }

      .st4 {
        fill: #78c802;
      }

      .st5 {
        fill: url(#linear-gradient);
      }

      .st6 {
        fill: #fab700;
      }
    </style>
    <linearGradient id="linear-gradient" x1="7.77" y1="10.43" x2="47.53" y2="10.43" gradientUnits="userSpaceOnUse">
      <stop offset="0" stop-color="#ffc202"/>
      <stop offset="1" stop-color="#78c802"/>
    </linearGradient>
  </defs>
  <rect class="st2" width="277" height="48"/>
  <g>
    <g>
      <g>
        <path class="st4" d="M74.7,24.39c-.69-.65-1.55-1.22-2.56-1.69-1.01-.47-2.17-.85-3.47-1.14l-2.26-.52c-.8-.18-1.49-.39-2.07-.64-.59-.25-1.04-.56-1.34-.93-.31-.37-.46-.81-.46-1.34,0-.47.14-.9.42-1.28.28-.38.69-.68,1.25-.89.55-.21,1.24-.32,2.07-.32,1.25,0,2.21.26,2.89.79.68.53,1.06,1.27,1.13,2.22h6.16c-.02-1.65-.45-3.1-1.28-4.35-.83-1.25-2.01-2.23-3.53-2.92-1.52-.69-3.31-1.04-5.36-1.04s-3.81.34-5.37,1.03c-1.56.69-2.79,1.65-3.68,2.89-.89,1.23-1.34,2.67-1.34,4.31,0,2.03.66,3.64,1.98,4.82,1.32,1.18,3.12,2.03,5.4,2.56l2.8.64c.97.21,1.77.45,2.4.72.62.27,1.09.58,1.4.93.31.35.46.77.46,1.27,0,.55-.17,1.03-.5,1.44s-.8.74-1.42.98c-.61.24-1.35.36-2.22.36-.95,0-1.78-.15-2.48-.45-.71-.3-1.26-.73-1.67-1.31-.41-.58-.64-1.28-.7-2.13h-6.13c.02,2.07.5,3.78,1.42,5.14.92,1.36,2.21,2.37,3.86,3.05,1.65.67,3.59,1.01,5.81,1.01s4.1-.32,5.66-.96c1.57-.64,2.77-1.56,3.61-2.77.84-1.2,1.26-2.65,1.26-4.34,0-1.06-.18-2.01-.53-2.87-.36-.86-.88-1.61-1.58-2.26Z"/>
        <rect class="st4" x="80.72" y="10.7" width="6.34" height="26.54"/>
        <rect class="st4" x="91.73" y="17.32" width="6.34" height="19.91"/>
        <rect class="st1" x="91.73" y="10.7" width="6.34" height="4.57"/>
        <path class="st4" d="M112.72,32.49c-.28.05-.53.07-.74.07-.56,0-.97-.13-1.23-.4-.26-.27-.39-.67-.39-1.2v-8.96h3.6v-4.68h-3.6v-4.74h-6.32v4.74h-2.62v4.68h2.62v9.67c0,1.89.55,3.33,1.66,4.34,1.1,1,2.71,1.51,4.83,1.51.59,0,1.2-.04,1.81-.13.61-.09,1.27-.23,1.99-.44l-.94-4.59c-.15.05-.37.1-.65.14Z"/>
        <path class="st4" d="M134.24,18.01c-1.04-.62-2.25-.93-3.64-.93-1.5,0-2.75.35-3.78,1.04-1.02.69-1.76,1.65-2.21,2.88h-.23v-10.29h-6.11v26.54h6.34v-11.34c0-.76.14-1.41.42-1.95.28-.54.67-.95,1.17-1.24.51-.29,1.09-.43,1.76-.43,1.02,0,1.81.31,2.37.93.56.62.84,1.49.84,2.59v11.43h6.34v-12.68c0-1.51-.28-2.82-.85-3.94-.57-1.12-1.38-1.99-2.41-2.61Z"/>
        <path class="st4" d="M158.23,19.7c-.86-.86-1.88-1.51-3.06-1.96-1.18-.45-2.48-.67-3.89-.67-2,0-3.73.43-5.2,1.29-1.47.86-2.61,2.06-3.42,3.6-.81,1.54-1.21,3.33-1.21,5.39s.4,3.95,1.2,5.49c.8,1.53,1.96,2.71,3.46,3.54,1.51.83,3.31,1.24,5.4,1.24,1.73,0,3.25-.26,4.56-.79,1.31-.53,2.36-1.27,3.17-2.24.81-.96,1.33-2.1,1.57-3.4l-5.81-.16c-.17.43-.41.79-.73,1.1-.32.3-.71.53-1.16.69-.45.15-.95.23-1.5.23-.78,0-1.48-.18-2.07-.54-.6-.36-1.06-.88-1.39-1.56-.29-.61-.45-1.31-.48-2.12h13.26v-1.57c0-1.65-.23-3.1-.7-4.36-.47-1.26-1.13-2.32-1.99-3.18ZM149.34,22.17c.55-.36,1.22-.53,2.01-.53s1.46.18,1.99.53c.53.36.94.86,1.21,1.5.18.44.3.93.36,1.49h-7.22c.06-.56.19-1.06.39-1.51.29-.64.7-1.13,1.25-1.49Z"/>
        <path class="st4" d="M176.69,17.13c-.32-.04-.62-.05-.92-.05-1.08,0-2.03.32-2.86.95-.83.64-1.42,1.62-1.77,2.95h-.21v-3.65h-6.14v19.91h6.34v-10.81c0-.78.17-1.47.51-2.07.34-.59.81-1.06,1.41-1.39.6-.33,1.27-.5,2.02-.5.38,0,.81.03,1.3.08s.88.13,1.19.24v-5.49c-.26-.08-.55-.14-.86-.18Z"/>
      </g>
      <g>
        <path class="st5" d="M38.24.47h-18.11C13.32.47,7.77,6.03,7.77,12.85v4.67c0,.29,0,.59.04.88.05.68.16,1.35.31,1.99,2.04-4.03,6.21-6.81,11.03-6.81h2.1s26.27,0,26.27,0v-3.8c0-5.13-4.17-9.29-9.29-9.29ZM40.14,9.66c-1.08,0-1.95-.88-1.95-1.95s.87-1.95,1.95-1.95,1.95.88,1.95,1.95-.87,1.95-1.95,1.95Z"/>
        <path class="st0" d="M21.25,13.64v.04c-4.91,3.06-7.79,8.66-7.34,14.51-.96-.57-1.85-1.26-2.62-2.06-.02-.02-.04-.03-.05-.05-.19-.19-.36-.4-.54-.61-.04-.04-.08-.08-.11-.12-.11-.13-.22-.27-.33-.41-.03-.03-.05-.07-.07-.1-.17-.24-.34-.48-.5-.73-.15-.23-.29-.48-.43-.73,1.2-5.54,6.1-9.7,11.98-9.74Z"/>
        <path class="st4" d="M35.54,18.12h-14.28v-4.45c-4.91,3.06-7.79,8.66-7.34,14.51-.4-.23-.78-.48-1.14-.76,2.06,1.54,4.61,2.46,7.37,2.46h13.9v4.55h-15.75c-7.6,0-17.12,5.81-17.84,13.09h35.09c6.61,0,11.99-5.38,11.99-11.99v-5.44c0-6.61-5.38-11.99-11.99-11.99Z"/>
        <path class="st4" d="M12.72,27.39c-.37-.28-.72-.57-1.05-.88.33.31.68.61,1.05.88Z"/>
        <path class="st4" d="M8.59,21.9c.16.43.34.84.55,1.24-.21-.4-.39-.82-.55-1.24Z"/>
        <path class="st3" d="M21.25,13.57v.06c-5.88.05-10.78,4.2-11.98,9.74-.13-.23-.25-.47-.36-.71-.04-.09-.08-.18-.11-.26-.1-.21-.19-.43-.26-.64-.14-.36-.26-.75-.36-1.13,0-.03-.05-.19-.06-.26,2.04-4.03,6.21-6.81,11.03-6.81h2.1Z"/>
      </g>
    </g>
    <g>
      <path class="st6" d="M200.39,36.16c-.97.43-1.91.75-2.81.94s-1.89.29-2.95.29c-2.97,0-5.39-1-7.26-2.99-1.87-1.99-2.81-4.59-2.81-7.8,0-3.52,1.02-6.34,3.06-8.47,2.04-2.12,4.64-3.19,7.8-3.19.83,0,1.64.07,2.43.22s1.62.39,2.47.72l-.48,1.27c-.78-.3-1.52-.52-2.24-.65-.72-.13-1.49-.2-2.32-.2-2.68,0-4.89.92-6.61,2.77-1.72,1.85-2.58,4.3-2.58,7.37s.82,5.29,2.45,7c1.63,1.71,3.68,2.57,6.15,2.57.91,0,1.77-.09,2.59-.26s1.67-.46,2.54-.84l.56,1.26Z"/>
      <path class="st6" d="M214.15,37.01h-1.39v-3.1h-.06c-.49,1.06-1.21,1.91-2.16,2.54-.94.63-1.99.95-3.14.95-1.47,0-2.64-.41-3.5-1.24-.86-.83-1.29-1.87-1.29-3.13,0-1.33.42-2.41,1.26-3.23s2.3-1.39,4.38-1.7l4.5-.68v-.5c-.06-1.49-.41-2.62-1.04-3.37-.63-.75-1.56-1.13-2.79-1.13-.93,0-1.78.15-2.54.46-.77.31-1.49.79-2.16,1.45l-.89-.91c.81-.78,1.66-1.35,2.57-1.72.91-.37,1.92-.55,3.04-.55,1.73,0,3.02.5,3.9,1.48.87.99,1.31,2.43,1.31,4.31v10.08ZM212.76,30.18v-1.51l-4.27.62c-1.67.24-2.82.65-3.45,1.23-.64.58-.95,1.39-.95,2.44,0,.92.31,1.67.92,2.27s1.46.89,2.55.89c1.49,0,2.73-.55,3.72-1.66.99-1.1,1.48-2.53,1.48-4.28Z"/>
      <path class="st6" d="M219.12,34.25h-.06v2.75h-1.39V14.06h1.39v10.64h.06c.55-1.14,1.35-2.02,2.38-2.64,1.03-.62,2.17-.93,3.4-.93,1.98,0,3.52.68,4.62,2.04,1.11,1.36,1.66,3.2,1.66,5.53,0,2.58-.64,4.68-1.92,6.28s-2.95,2.41-5.01,2.41c-1.15,0-2.15-.26-3.01-.79-.86-.53-1.56-1.31-2.12-2.35ZM219.06,28.49v1.95c0,1.55.49,2.89,1.46,4,.97,1.12,2.26,1.67,3.85,1.67s2.89-.68,3.88-2.04c.99-1.36,1.48-3.14,1.48-5.35,0-1.96-.45-3.5-1.36-4.63-.9-1.13-2.12-1.7-3.66-1.7-1.81,0-3.2.61-4.19,1.82-.98,1.21-1.48,2.63-1.48,4.27Z"/>
      <path class="st6" d="M234.56,17.66c-.34,0-.63-.12-.86-.36s-.35-.53-.35-.86.12-.63.35-.86c.23-.23.52-.34.86-.34s.65.11.89.34c.24.23.36.51.36.84s-.12.64-.36.88-.54.36-.89.36ZM235.28,37.01h-1.39v-15.5h1.39v15.5Z"/>
      <path class="st6" d="M251.02,37.01h-1.39v-9.02c0-1.87-.34-3.26-1.01-4.19-.67-.93-1.68-1.39-3.02-1.39-1.49,0-2.72.55-3.68,1.64-.96,1.1-1.44,2.45-1.44,4.06v8.9h-1.39v-15.5h1.39v2.82h.06c.57-1.07,1.29-1.87,2.17-2.4.88-.53,1.92-.79,3.13-.79,1.67,0,2.96.56,3.84,1.67.89,1.12,1.33,2.71,1.33,4.78v9.43Z"/>
      <path class="st6" d="M266.34,29.32h-11.47c0,2.38.53,4.11,1.58,5.18,1.05,1.07,2.4,1.61,4.03,1.61.78,0,1.54-.13,2.3-.39.76-.26,1.49-.68,2.21-1.24l.79,1.01c-.84.66-1.7,1.13-2.58,1.44-.88.3-1.86.46-2.93.46-1.91,0-3.53-.65-4.86-1.95s-2-3.39-2-6.27c0-2.27.64-4.18,1.93-5.72,1.29-1.54,2.96-2.32,5.02-2.32,1.93,0,3.41.68,4.43,2.03,1.03,1.35,1.54,3.2,1.54,5.54v.62ZM264.89,28.05c-.06-1.79-.49-3.17-1.29-4.16-.8-.99-1.9-1.48-3.3-1.48s-2.66.49-3.61,1.46c-.95.97-1.54,2.37-1.76,4.19h9.96Z"/>
      <path class="st6" d="M275.29,36.69c-.33.21-.7.37-1.1.47-.4.1-.85.15-1.34.15-.99,0-1.76-.31-2.32-.93-.56-.62-.84-1.52-.84-2.7v-10.9h-2.79v-1.27h2.79v-4.07l1.39-.47v4.54h4.09v1.27h-4.09v10.72c0,.9.17,1.55.51,1.95.34.4.82.61,1.45.61.36,0,.69-.05.98-.14.29-.09.55-.22.79-.38l.48,1.15Z"/>
    </g>
  </g>
</svg>